<svg xmlns="http://www.w3.org/2000/svg" width="1200" height="616" viewBox="0 0 1200 616" role="img" aria-label="Solutions per pattern &amp; topic"><title>Solutions per pattern &amp; topic</title>
<style>
  .l{font:600 15px 'Segoe UI', 'SF Pro Display', system-ui, -apple-system, 'Helvetica Neue', Arial, sans-serif;fill:#e2e8f0} .n{font:700 13px 'JetBrains Mono', 'Cascadia Code', 'SF Mono', Consolas, Menlo, monospace;fill:#94a3b8} .s{font:500 13px 'Segoe UI', 'SF Pro Display', system-ui, -apple-system, 'Helvetica Neue', Arial, sans-serif;fill:#94a3b8}
  .h{font:700 13px 'JetBrains Mono', 'Cascadia Code', 'SF Mono', Consolas, Menlo, monospace;letter-spacing:3px;fill:#8b5cf6}
  .gr{transform-box:fill-box;transform-origin:left;animation:gr 1s cubic-bezier(.2,.8,.2,1)} @keyframes gr{from{transform:scaleX(0)}}
</style>
<rect x=".5" y=".5" width="1199" height="615" rx="18" fill="#0b0d1a" stroke="#1e1b4b"/>
<text x="40" y="38" class="h">// SOLUTIONS PER PATTERN &amp; TOPIC</text>
<text x="40" y="78" class="l">🧮 Arrays &amp; Hashing</text><rect x="330" y="64" width="760" height="18" rx="9" fill="#1e1b4b" fill-opacity=".6"/><rect x="330.0" y="64" width="246.5" height="18" rx="9" fill="#2dd4bf" class="gr" style="animation-duration:0.80s"/><rect x="578.5" y="64" width="107.6" height="18" rx="9" fill="#fbbf24" class="gr" style="animation-duration:0.80s"/><rect x="688.1" y="64" width="12.6" height="18" rx="9" fill="#8b5cf6" class="gr" style="animation-duration:0.80s"/><text x="713" y="78" class="n">51</text><text x="40" y="112" class="l">👉 Two Pointers</text><rect x="330" y="98" width="760" height="18" rx="9" fill="#1e1b4b" fill-opacity=".6"/><rect x="330.0" y="98" width="78.4" height="18" rx="9" fill="#2dd4bf" class="gr" style="animation-duration:0.88s"/><rect x="410.4" y="98" width="49.2" height="18" rx="9" fill="#fbbf24" class="gr" style="animation-duration:0.88s"/><rect x="461.5" y="98" width="5.3" height="18" rx="9" fill="#f472b6" class="gr" style="animation-duration:0.88s"/><rect x="468.8" y="98" width="5.3" height="18" rx="9" fill="#8b5cf6" class="gr" style="animation-duration:0.88s"/><text x="486" y="112" class="n">20</text><text x="40" y="146" class="l">🪟 Sliding Window</text><rect x="330" y="132" width="760" height="18" rx="9" fill="#1e1b4b" fill-opacity=".6"/><rect x="330.0" y="132" width="5.3" height="18" rx="9" fill="#2dd4bf" class="gr" style="animation-duration:0.96s"/><rect x="337.3" y="132" width="19.9" height="18" rx="9" fill="#fbbf24" class="gr" style="animation-duration:0.96s"/><text x="369" y="146" class="n">4</text><text x="40" y="180" class="l">➕ Prefix Sum</text><rect x="330" y="166" width="760" height="18" rx="9" fill="#1e1b4b" fill-opacity=".6"/><rect x="330.0" y="166" width="19.9" height="18" rx="9" fill="#2dd4bf" class="gr" style="animation-duration:1.04s"/><rect x="351.9" y="166" width="34.5" height="18" rx="9" fill="#fbbf24" class="gr" style="animation-duration:1.04s"/><text x="398" y="180" class="n">8</text><text x="40" y="214" class="l">📚 Stack</text><rect x="330" y="200" width="760" height="18" rx="9" fill="#1e1b4b" fill-opacity=".6"/><rect x="330.0" y="200" width="78.4" height="18" rx="9" fill="#2dd4bf" class="gr" style="animation-duration:1.12s"/><rect x="410.4" y="200" width="27.2" height="18" rx="9" fill="#fbbf24" class="gr" style="animation-duration:1.12s"/><rect x="439.6" y="200" width="5.3" height="18" rx="9" fill="#f472b6" class="gr" style="animation-duration:1.12s"/><text x="457" y="214" class="n">16</text><text x="40" y="248" class="l">🔍 Binary Search</text><rect x="330" y="234" width="760" height="18" rx="9" fill="#1e1b4b" fill-opacity=".6"/><rect x="330.0" y="234" width="27.2" height="18" rx="9" fill="#2dd4bf" class="gr" style="animation-duration:1.20s"/><rect x="359.2" y="234" width="49.2" height="18" rx="9" fill="#fbbf24" class="gr" style="animation-duration:1.20s"/><rect x="410.4" y="234" width="5.3" height="18" rx="9" fill="#f472b6" class="gr" style="animation-duration:1.20s"/><text x="428" y="248" class="n">12</text><text x="40" y="282" class="l">🌲 Trees &amp; BST</text><rect x="330" y="268" width="760" height="18" rx="9" fill="#1e1b4b" fill-opacity=".6"/><rect x="330.0" y="268" width="27.2" height="18" rx="9" fill="#2dd4bf" class="gr" style="animation-duration:1.28s"/><rect x="359.2" y="268" width="12.6" height="18" rx="9" fill="#fbbf24" class="gr" style="animation-duration:1.28s"/><text x="384" y="282" class="n">6</text><text x="40" y="316" class="l">🕸️ Graphs &amp; Search</text><rect x="330" y="302" width="760" height="18" rx="9" fill="#1e1b4b" fill-opacity=".6"/><rect x="330.0" y="302" width="5.3" height="18" rx="9" fill="#2dd4bf" class="gr" style="animation-duration:1.36s"/><rect x="337.3" y="302" width="12.6" height="18" rx="9" fill="#fbbf24" class="gr" style="animation-duration:1.36s"/><text x="362" y="316" class="n">3</text><text x="40" y="350" class="l">🧠 Dynamic Programming</text><rect x="330" y="336" width="760" height="18" rx="9" fill="#1e1b4b" fill-opacity=".6"/><rect x="330.0" y="336" width="27.2" height="18" rx="9" fill="#2dd4bf" class="gr" style="animation-duration:1.44s"/><rect x="359.2" y="336" width="5.3" height="18" rx="9" fill="#fbbf24" class="gr" style="animation-duration:1.44s"/><rect x="366.5" y="336" width="5.3" height="18" rx="9" fill="#f472b6" class="gr" style="animation-duration:1.44s"/><text x="384" y="350" class="n">6</text><text x="40" y="384" class="l">🔄 Matrix / Simulation</text><rect x="330" y="370" width="760" height="18" rx="9" fill="#1e1b4b" fill-opacity=".6"/><rect x="330.0" y="370" width="12.6" height="18" rx="9" fill="#fbbf24" class="gr" style="animation-duration:1.52s"/><text x="355" y="384" class="n">2</text><text x="40" y="418" class="l">🔤 Strings</text><rect x="330" y="404" width="760" height="18" rx="9" fill="#1e1b4b" fill-opacity=".6"/><rect x="330.0" y="404" width="19.9" height="18" rx="9" fill="#2dd4bf" class="gr" style="animation-duration:1.60s"/><text x="362" y="418" class="n">3</text><text x="40" y="452" class="l">🧰 Sorting &amp; STL</text><rect x="330" y="438" width="760" height="18" rx="9" fill="#1e1b4b" fill-opacity=".6"/><rect x="330.0" y="438" width="12.6" height="18" rx="9" fill="#2dd4bf" class="gr" style="animation-duration:1.68s"/><rect x="344.6" y="438" width="41.8" height="18" rx="9" fill="#fbbf24" class="gr" style="animation-duration:1.68s"/><text x="398" y="452" class="n">8</text><text x="40" y="486" class="l">🗄️ SQL</text><rect x="330" y="472" width="760" height="18" rx="9" fill="#1e1b4b" fill-opacity=".6"/><rect x="330.0" y="472" width="107.6" height="18" rx="9" fill="#2dd4bf" class="gr" style="animation-duration:1.76s"/><rect x="439.6" y="472" width="41.8" height="18" rx="9" fill="#fbbf24" class="gr" style="animation-duration:1.76s"/><text x="493" y="486" class="n">21</text><text x="40" y="520" class="l">⚡ Bit Manipulation</text><rect x="330" y="506" width="760" height="18" rx="9" fill="#1e1b4b" fill-opacity=".6"/><rect x="330.0" y="506" width="41.8" height="18" rx="9" fill="#2dd4bf" class="gr" style="animation-duration:1.84s"/><rect x="373.8" y="506" width="12.6" height="18" rx="9" fill="#fbbf24" class="gr" style="animation-duration:1.84s"/><text x="398" y="520" class="n">8</text><text x="40" y="554" class="l">🧩 Data Structures &amp; Algorithms</text><rect x="330" y="540" width="760" height="18" rx="9" fill="#1e1b4b" fill-opacity=".6"/><rect x="330.0" y="540" width="71.1" height="18" rx="9" fill="#2dd4bf" class="gr" style="animation-duration:1.92s"/><rect x="403.1" y="540" width="41.8" height="18" rx="9" fill="#fbbf24" class="gr" style="animation-duration:1.92s"/><rect x="446.9" y="540" width="641.1" height="18" rx="9" fill="#8b5cf6" class="gr" style="animation-duration:1.92s"/><text x="1100" y="554" class="n">104</text><circle cx="40" cy="594" r="6" fill="#2dd4bf"/><text x="52" y="599" class="s">Easy</text><circle cx="200" cy="594" r="6" fill="#fbbf24"/><text x="212" y="599" class="s">Medium</text><circle cx="360" cy="594" r="6" fill="#f472b6"/><text x="372" y="599" class="s">Hard</text><circle cx="520" cy="594" r="6" fill="#8b5cf6"/><text x="532" y="599" class="s">lessons / snippets</text>
</svg>
