<svg xmlns="http://www.w3.org/2000/svg" width="1200" height="330" viewBox="0 0 1200 330" role="img" aria-label="#704 · Binary Search executing step by step"><title>#704 · Binary Search — animated execution trace</title>
<style>
  .tag{font:700 12px 'JetBrains Mono','Cascadia Code','SF Mono',Consolas,Menlo,monospace;letter-spacing:2px;fill:#f472b6}
  .ttl{font:800 26px 'Segoe UI','SF Pro Display',system-ui,-apple-system,sans-serif;fill:#e2e8f0}
  .sub{font:600 13px 'JetBrains Mono','Cascadia Code','SF Mono',Consolas,Menlo,monospace;fill:#94a3b8}
  .chip{font:700 11px 'JetBrains Mono','Cascadia Code','SF Mono',Consolas,Menlo,monospace;letter-spacing:1px}
  @keyframes f0{0%,25.000%{opacity:1}25.001%,100%{opacity:0}}
  @keyframes f1{0%,25.000%{opacity:0}25.001%,50.000%{opacity:1}50.001%,100%{opacity:0}}
  @keyframes f2{0%,50.000%{opacity:0}50.001%,75.000%{opacity:1}75.001%,100%{opacity:0}}
  @keyframes f3{0%,75.000%{opacity:0}75.001%,100.000%{opacity:1}100.001%,100%{opacity:0}}
</style>
<rect x=".5" y=".5" width="1199" height="329" rx="20" fill="#05060f" stroke="#1e1b4b"/>
<rect x="28" y="24" width="1144" height="282" rx="16" fill="#0b0d1a" fill-opacity=".55" stroke="#1e1b4b"/>
<text x="56" y="58" class="tag">// ALGORITHM REPLAY · REBUILT DAILY</text>
<text x="56" y="90" class="ttl">#704 · Binary Search</text>
<text x="56" y="112" class="sub">Binary Search · O(log n) · 11 elements, 3 comparisons.</text>
<g transform="translate(1144 84)">
  <rect x="-170" y="-22" width="170" height="30" rx="15" fill="#8b5cf6" fill-opacity=".12" stroke="#8b5cf6" stroke-opacity=".5"/>
  <text x="-85" y="-2" text-anchor="middle" class="chip" fill="#8b5cf6">SOLVED IN THIS REPO</text>
</g>
<g style="opacity:0;animation:f0 6.8s steps(1,end) infinite"><rect x="219.0" y="132" width="62" height="62" rx="10" fill="#22d3ee22" stroke="#22d3ee" stroke-width="1.5"/><text x="250.0" y="169.0" text-anchor="middle" style="font:700 17px 'JetBrains Mono','Cascadia Code','SF Mono',Consolas,Menlo,monospace;fill:#e2e8f0">2</text><text x="250.0" y="120" text-anchor="middle" style="font:700 11px 'JetBrains Mono','Cascadia Code','SF Mono',Consolas,Menlo,monospace;letter-spacing:.8px;fill:#22d3ee">lo</text><path d="M250.0 124 l-4 -5 h8 z" fill="#22d3ee"/><rect x="289.0" y="132" width="62" height="62" rx="10" fill="#8b5cf618" stroke="#8b5cf655" stroke-width="1.5"/><text x="320.0" y="169.0" text-anchor="middle" style="font:700 17px 'JetBrains Mono','Cascadia Code','SF Mono',Consolas,Menlo,monospace;fill:#e2e8f0">5</text><rect x="359.0" y="132" width="62" height="62" rx="10" fill="#8b5cf618" stroke="#8b5cf655" stroke-width="1.5"/><text x="390.0" y="169.0" text-anchor="middle" style="font:700 17px 'JetBrains Mono','Cascadia Code','SF Mono',Consolas,Menlo,monospace;fill:#e2e8f0">8</text><rect x="429.0" y="132" width="62" height="62" rx="10" fill="#8b5cf618" stroke="#8b5cf655" stroke-width="1.5"/><text x="460.0" y="169.0" text-anchor="middle" style="font:700 17px 'JetBrains Mono','Cascadia Code','SF Mono',Consolas,Menlo,monospace;fill:#e2e8f0">12</text><rect x="499.0" y="132" width="62" height="62" rx="10" fill="#8b5cf618" stroke="#8b5cf655" stroke-width="1.5"/><text x="530.0" y="169.0" text-anchor="middle" style="font:700 17px 'JetBrains Mono','Cascadia Code','SF Mono',Consolas,Menlo,monospace;fill:#e2e8f0">16</text><rect x="569.0" y="132" width="62" height="62" rx="10" fill="#8b5cf618" stroke="#8b5cf655" stroke-width="1.5"/><text x="600.0" y="169.0" text-anchor="middle" style="font:700 17px 'JetBrains Mono','Cascadia Code','SF Mono',Consolas,Menlo,monospace;fill:#e2e8f0">23</text><rect x="639.0" y="132" width="62" height="62" rx="10" fill="#8b5cf618" stroke="#8b5cf655" stroke-width="1.5"/><text x="670.0" y="169.0" text-anchor="middle" style="font:700 17px 'JetBrains Mono','Cascadia Code','SF Mono',Consolas,Menlo,monospace;fill:#e2e8f0">38</text><rect x="709.0" y="132" width="62" height="62" rx="10" fill="#8b5cf618" stroke="#8b5cf655" stroke-width="1.5"/><text x="740.0" y="169.0" text-anchor="middle" style="font:700 17px 'JetBrains Mono','Cascadia Code','SF Mono',Consolas,Menlo,monospace;fill:#e2e8f0">47</text><rect x="779.0" y="132" width="62" height="62" rx="10" fill="#8b5cf618" stroke="#8b5cf655" stroke-width="1.5"/><text x="810.0" y="169.0" text-anchor="middle" style="font:700 17px 'JetBrains Mono','Cascadia Code','SF Mono',Consolas,Menlo,monospace;fill:#e2e8f0">56</text><rect x="849.0" y="132" width="62" height="62" rx="10" fill="#8b5cf618" stroke="#8b5cf655" stroke-width="1.5"/><text x="880.0" y="169.0" text-anchor="middle" style="font:700 17px 'JetBrains Mono','Cascadia Code','SF Mono',Consolas,Menlo,monospace;fill:#e2e8f0">72</text><rect x="919.0" y="132" width="62" height="62" rx="10" fill="#f472b622" stroke="#f472b6" stroke-width="1.5"/><text x="950.0" y="169.0" text-anchor="middle" style="font:700 17px 'JetBrains Mono','Cascadia Code','SF Mono',Consolas,Menlo,monospace;fill:#e2e8f0">91</text><text x="950.0" y="120" text-anchor="middle" style="font:700 11px 'JetBrains Mono','Cascadia Code','SF Mono',Consolas,Menlo,monospace;letter-spacing:.8px;fill:#f472b6">hi</text><path d="M950.0 124 l-4 -5 h8 z" fill="#f472b6"/><text x="219.0" y="238" style="font:500 16px 'Segoe UI','SF Pro Display',system-ui,-apple-system,sans-serif;fill:#e2e8f0">Searching for 12 in a sorted array.</text><text x="219.0" y="264" style="font:600 13px 'JetBrains Mono','Cascadia Code','SF Mono',Consolas,Menlo,monospace;fill:#94a3b8">range = [0, 10]  ·  11 candidates</text><text x="1144" y="300" text-anchor="end" style="font:700 12px 'JetBrains Mono','Cascadia Code','SF Mono',Consolas,Menlo,monospace;fill:#475569">step 1/4</text><circle cx="219.0" cy="296" r="4" fill="#8b5cf6"/><circle cx="235.0" cy="296" r="4" fill="#1e1b4b"/><circle cx="251.0" cy="296" r="4" fill="#1e1b4b"/><circle cx="267.0" cy="296" r="4" fill="#1e1b4b"/></g><g style="opacity:0;animation:f1 6.8s steps(1,end) infinite"><rect x="219.0" y="132" width="62" height="62" rx="10" fill="#22d3ee22" stroke="#22d3ee" stroke-width="1.5"/><text x="250.0" y="169.0" text-anchor="middle" style="font:700 17px 'JetBrains Mono','Cascadia Code','SF Mono',Consolas,Menlo,monospace;fill:#e2e8f0">2</text><text x="250.0" y="120" text-anchor="middle" style="font:700 11px 'JetBrains Mono','Cascadia Code','SF Mono',Consolas,Menlo,monospace;letter-spacing:.8px;fill:#22d3ee">lo</text><path d="M250.0 124 l-4 -5 h8 z" fill="#22d3ee"/><rect x="289.0" y="132" width="62" height="62" rx="10" fill="#8b5cf618" stroke="#8b5cf655" stroke-width="1.5"/><text x="320.0" y="169.0" text-anchor="middle" style="font:700 17px 'JetBrains Mono','Cascadia Code','SF Mono',Consolas,Menlo,monospace;fill:#e2e8f0">5</text><rect x="359.0" y="132" width="62" height="62" rx="10" fill="#8b5cf618" stroke="#8b5cf655" stroke-width="1.5"/><text x="390.0" y="169.0" text-anchor="middle" style="font:700 17px 'JetBrains Mono','Cascadia Code','SF Mono',Consolas,Menlo,monospace;fill:#e2e8f0">8</text><rect x="429.0" y="132" width="62" height="62" rx="10" fill="#8b5cf618" stroke="#8b5cf655" stroke-width="1.5"/><text x="460.0" y="169.0" text-anchor="middle" style="font:700 17px 'JetBrains Mono','Cascadia Code','SF Mono',Consolas,Menlo,monospace;fill:#e2e8f0">12</text><rect x="499.0" y="132" width="62" height="62" rx="10" fill="#8b5cf618" stroke="#8b5cf655" stroke-width="1.5"/><text x="530.0" y="169.0" text-anchor="middle" style="font:700 17px 'JetBrains Mono','Cascadia Code','SF Mono',Consolas,Menlo,monospace;fill:#e2e8f0">16</text><rect x="569.0" y="132" width="62" height="62" rx="10" fill="#fbbf2426" stroke="#fbbf24" stroke-width="1.5"/><text x="600.0" y="169.0" text-anchor="middle" style="font:700 17px 'JetBrains Mono','Cascadia Code','SF Mono',Consolas,Menlo,monospace;fill:#e2e8f0">23</text><text x="600.0" y="120" text-anchor="middle" style="font:700 11px 'JetBrains Mono','Cascadia Code','SF Mono',Consolas,Menlo,monospace;letter-spacing:.8px;fill:#fbbf24">mid</text><path d="M600.0 124 l-4 -5 h8 z" fill="#fbbf24"/><rect x="639.0" y="132" width="62" height="62" rx="10" fill="#8b5cf618" stroke="#8b5cf655" stroke-width="1.5"/><text x="670.0" y="169.0" text-anchor="middle" style="font:700 17px 'JetBrains Mono','Cascadia Code','SF Mono',Consolas,Menlo,monospace;fill:#e2e8f0">38</text><rect x="709.0" y="132" width="62" height="62" rx="10" fill="#8b5cf618" stroke="#8b5cf655" stroke-width="1.5"/><text x="740.0" y="169.0" text-anchor="middle" style="font:700 17px 'JetBrains Mono','Cascadia Code','SF Mono',Consolas,Menlo,monospace;fill:#e2e8f0">47</text><rect x="779.0" y="132" width="62" height="62" rx="10" fill="#8b5cf618" stroke="#8b5cf655" stroke-width="1.5"/><text x="810.0" y="169.0" text-anchor="middle" style="font:700 17px 'JetBrains Mono','Cascadia Code','SF Mono',Consolas,Menlo,monospace;fill:#e2e8f0">56</text><rect x="849.0" y="132" width="62" height="62" rx="10" fill="#8b5cf618" stroke="#8b5cf655" stroke-width="1.5"/><text x="880.0" y="169.0" text-anchor="middle" style="font:700 17px 'JetBrains Mono','Cascadia Code','SF Mono',Consolas,Menlo,monospace;fill:#e2e8f0">72</text><rect x="919.0" y="132" width="62" height="62" rx="10" fill="#f472b622" stroke="#f472b6" stroke-width="1.5"/><text x="950.0" y="169.0" text-anchor="middle" style="font:700 17px 'JetBrains Mono','Cascadia Code','SF Mono',Consolas,Menlo,monospace;fill:#e2e8f0">91</text><text x="950.0" y="120" text-anchor="middle" style="font:700 11px 'JetBrains Mono','Cascadia Code','SF Mono',Consolas,Menlo,monospace;letter-spacing:.8px;fill:#f472b6">hi</text><path d="M950.0 124 l-4 -5 h8 z" fill="#f472b6"/><text x="219.0" y="238" style="font:500 16px 'Segoe UI','SF Pro Display',system-ui,-apple-system,sans-serif;fill:#e2e8f0">arr[5] = 23 &gt; 12 — discard the right half.</text><text x="219.0" y="264" style="font:600 13px 'JetBrains Mono','Cascadia Code','SF Mono',Consolas,Menlo,monospace;fill:#94a3b8">range = [0, 10]  ·  11 candidates</text><text x="1144" y="300" text-anchor="end" style="font:700 12px 'JetBrains Mono','Cascadia Code','SF Mono',Consolas,Menlo,monospace;fill:#475569">step 2/4</text><circle cx="219.0" cy="296" r="4" fill="#1e1b4b"/><circle cx="235.0" cy="296" r="4" fill="#8b5cf6"/><circle cx="251.0" cy="296" r="4" fill="#1e1b4b"/><circle cx="267.0" cy="296" r="4" fill="#1e1b4b"/></g><g style="opacity:0;animation:f2 6.8s steps(1,end) infinite"><rect x="219.0" y="132" width="62" height="62" rx="10" fill="#22d3ee22" stroke="#22d3ee" stroke-width="1.5"/><text x="250.0" y="169.0" text-anchor="middle" style="font:700 17px 'JetBrains Mono','Cascadia Code','SF Mono',Consolas,Menlo,monospace;fill:#e2e8f0">2</text><text x="250.0" y="120" text-anchor="middle" style="font:700 11px 'JetBrains Mono','Cascadia Code','SF Mono',Consolas,Menlo,monospace;letter-spacing:.8px;fill:#22d3ee">lo</text><path d="M250.0 124 l-4 -5 h8 z" fill="#22d3ee"/><rect x="289.0" y="132" width="62" height="62" rx="10" fill="#8b5cf618" stroke="#8b5cf655" stroke-width="1.5"/><text x="320.0" y="169.0" text-anchor="middle" style="font:700 17px 'JetBrains Mono','Cascadia Code','SF Mono',Consolas,Menlo,monospace;fill:#e2e8f0">5</text><rect x="359.0" y="132" width="62" height="62" rx="10" fill="#fbbf2426" stroke="#fbbf24" stroke-width="1.5"/><text x="390.0" y="169.0" text-anchor="middle" style="font:700 17px 'JetBrains Mono','Cascadia Code','SF Mono',Consolas,Menlo,monospace;fill:#e2e8f0">8</text><text x="390.0" y="120" text-anchor="middle" style="font:700 11px 'JetBrains Mono','Cascadia Code','SF Mono',Consolas,Menlo,monospace;letter-spacing:.8px;fill:#fbbf24">mid</text><path d="M390.0 124 l-4 -5 h8 z" fill="#fbbf24"/><rect x="429.0" y="132" width="62" height="62" rx="10" fill="#8b5cf618" stroke="#8b5cf655" stroke-width="1.5"/><text x="460.0" y="169.0" text-anchor="middle" style="font:700 17px 'JetBrains Mono','Cascadia Code','SF Mono',Consolas,Menlo,monospace;fill:#e2e8f0">12</text><rect x="499.0" y="132" width="62" height="62" rx="10" fill="#f472b622" stroke="#f472b6" stroke-width="1.5"/><text x="530.0" y="169.0" text-anchor="middle" style="font:700 17px 'JetBrains Mono','Cascadia Code','SF Mono',Consolas,Menlo,monospace;fill:#e2e8f0">16</text><text x="530.0" y="120" text-anchor="middle" style="font:700 11px 'JetBrains Mono','Cascadia Code','SF Mono',Consolas,Menlo,monospace;letter-spacing:.8px;fill:#f472b6">hi</text><path d="M530.0 124 l-4 -5 h8 z" fill="#f472b6"/><rect x="569.0" y="132" width="62" height="62" rx="10" fill="#0b0d1a" stroke="#12162e" stroke-width="1.5"/><text x="600.0" y="169.0" text-anchor="middle" style="font:700 17px 'JetBrains Mono','Cascadia Code','SF Mono',Consolas,Menlo,monospace;fill:#2b3550">23</text><rect x="639.0" y="132" width="62" height="62" rx="10" fill="#0b0d1a" stroke="#12162e" stroke-width="1.5"/><text x="670.0" y="169.0" text-anchor="middle" style="font:700 17px 'JetBrains Mono','Cascadia Code','SF Mono',Consolas,Menlo,monospace;fill:#2b3550">38</text><rect x="709.0" y="132" width="62" height="62" rx="10" fill="#0b0d1a" stroke="#12162e" stroke-width="1.5"/><text x="740.0" y="169.0" text-anchor="middle" style="font:700 17px 'JetBrains Mono','Cascadia Code','SF Mono',Consolas,Menlo,monospace;fill:#2b3550">47</text><rect x="779.0" y="132" width="62" height="62" rx="10" fill="#0b0d1a" stroke="#12162e" stroke-width="1.5"/><text x="810.0" y="169.0" text-anchor="middle" style="font:700 17px 'JetBrains Mono','Cascadia Code','SF Mono',Consolas,Menlo,monospace;fill:#2b3550">56</text><rect x="849.0" y="132" width="62" height="62" rx="10" fill="#0b0d1a" stroke="#12162e" stroke-width="1.5"/><text x="880.0" y="169.0" text-anchor="middle" style="font:700 17px 'JetBrains Mono','Cascadia Code','SF Mono',Consolas,Menlo,monospace;fill:#2b3550">72</text><rect x="919.0" y="132" width="62" height="62" rx="10" fill="#0b0d1a" stroke="#12162e" stroke-width="1.5"/><text x="950.0" y="169.0" text-anchor="middle" style="font:700 17px 'JetBrains Mono','Cascadia Code','SF Mono',Consolas,Menlo,monospace;fill:#2b3550">91</text><text x="219.0" y="238" style="font:500 16px 'Segoe UI','SF Pro Display',system-ui,-apple-system,sans-serif;fill:#e2e8f0">arr[2] = 8 &lt; 12 — discard the left half.</text><text x="219.0" y="264" style="font:600 13px 'JetBrains Mono','Cascadia Code','SF Mono',Consolas,Menlo,monospace;fill:#94a3b8">range = [0, 4]  ·  5 candidates</text><text x="1144" y="300" text-anchor="end" style="font:700 12px 'JetBrains Mono','Cascadia Code','SF Mono',Consolas,Menlo,monospace;fill:#475569">step 3/4</text><circle cx="219.0" cy="296" r="4" fill="#1e1b4b"/><circle cx="235.0" cy="296" r="4" fill="#1e1b4b"/><circle cx="251.0" cy="296" r="4" fill="#8b5cf6"/><circle cx="267.0" cy="296" r="4" fill="#1e1b4b"/></g><g style="opacity:0;animation:f3 6.8s steps(1,end) infinite"><rect x="219.0" y="132" width="62" height="62" rx="10" fill="#0b0d1a" stroke="#12162e" stroke-width="1.5"/><text x="250.0" y="169.0" text-anchor="middle" style="font:700 17px 'JetBrains Mono','Cascadia Code','SF Mono',Consolas,Menlo,monospace;fill:#2b3550">2</text><rect x="289.0" y="132" width="62" height="62" rx="10" fill="#0b0d1a" stroke="#12162e" stroke-width="1.5"/><text x="320.0" y="169.0" text-anchor="middle" style="font:700 17px 'JetBrains Mono','Cascadia Code','SF Mono',Consolas,Menlo,monospace;fill:#2b3550">5</text><rect x="359.0" y="132" width="62" height="62" rx="10" fill="#0b0d1a" stroke="#12162e" stroke-width="1.5"/><text x="390.0" y="169.0" text-anchor="middle" style="font:700 17px 'JetBrains Mono','Cascadia Code','SF Mono',Consolas,Menlo,monospace;fill:#2b3550">8</text><rect x="429.0" y="132" width="62" height="62" rx="10" fill="#a3e63528" stroke="#a3e635" stroke-width="1.5"/><text x="460.0" y="169.0" text-anchor="middle" style="font:700 17px 'JetBrains Mono','Cascadia Code','SF Mono',Consolas,Menlo,monospace;fill:#e2e8f0">12</text><text x="460.0" y="120" text-anchor="middle" style="font:700 11px 'JetBrains Mono','Cascadia Code','SF Mono',Consolas,Menlo,monospace;letter-spacing:.8px;fill:#a3e635">found</text><path d="M460.0 124 l-4 -5 h8 z" fill="#a3e635"/><rect x="499.0" y="132" width="62" height="62" rx="10" fill="#0b0d1a" stroke="#12162e" stroke-width="1.5"/><text x="530.0" y="169.0" text-anchor="middle" style="font:700 17px 'JetBrains Mono','Cascadia Code','SF Mono',Consolas,Menlo,monospace;fill:#2b3550">16</text><rect x="569.0" y="132" width="62" height="62" rx="10" fill="#0b0d1a" stroke="#12162e" stroke-width="1.5"/><text x="600.0" y="169.0" text-anchor="middle" style="font:700 17px 'JetBrains Mono','Cascadia Code','SF Mono',Consolas,Menlo,monospace;fill:#2b3550">23</text><rect x="639.0" y="132" width="62" height="62" rx="10" fill="#0b0d1a" stroke="#12162e" stroke-width="1.5"/><text x="670.0" y="169.0" text-anchor="middle" style="font:700 17px 'JetBrains Mono','Cascadia Code','SF Mono',Consolas,Menlo,monospace;fill:#2b3550">38</text><rect x="709.0" y="132" width="62" height="62" rx="10" fill="#0b0d1a" stroke="#12162e" stroke-width="1.5"/><text x="740.0" y="169.0" text-anchor="middle" style="font:700 17px 'JetBrains Mono','Cascadia Code','SF Mono',Consolas,Menlo,monospace;fill:#2b3550">47</text><rect x="779.0" y="132" width="62" height="62" rx="10" fill="#0b0d1a" stroke="#12162e" stroke-width="1.5"/><text x="810.0" y="169.0" text-anchor="middle" style="font:700 17px 'JetBrains Mono','Cascadia Code','SF Mono',Consolas,Menlo,monospace;fill:#2b3550">56</text><rect x="849.0" y="132" width="62" height="62" rx="10" fill="#0b0d1a" stroke="#12162e" stroke-width="1.5"/><text x="880.0" y="169.0" text-anchor="middle" style="font:700 17px 'JetBrains Mono','Cascadia Code','SF Mono',Consolas,Menlo,monospace;fill:#2b3550">72</text><rect x="919.0" y="132" width="62" height="62" rx="10" fill="#0b0d1a" stroke="#12162e" stroke-width="1.5"/><text x="950.0" y="169.0" text-anchor="middle" style="font:700 17px 'JetBrains Mono','Cascadia Code','SF Mono',Consolas,Menlo,monospace;fill:#2b3550">91</text><text x="219.0" y="238" style="font:500 16px 'Segoe UI','SF Pro Display',system-ui,-apple-system,sans-serif;fill:#e2e8f0">arr[3] == 12 — found it.</text><text x="219.0" y="264" style="font:600 13px 'JetBrains Mono','Cascadia Code','SF Mono',Consolas,Menlo,monospace;fill:#94a3b8">3 comparisons, not 11</text><text x="1144" y="300" text-anchor="end" style="font:700 12px 'JetBrains Mono','Cascadia Code','SF Mono',Consolas,Menlo,monospace;fill:#475569">step 4/4</text><circle cx="219.0" cy="296" r="4" fill="#1e1b4b"/><circle cx="235.0" cy="296" r="4" fill="#1e1b4b"/><circle cx="251.0" cy="296" r="4" fill="#1e1b4b"/><circle cx="267.0" cy="296" r="4" fill="#8b5cf6"/></g>
</svg>